<svg xmlns="http://www.w3.org/2000/svg" xmlns:xlink="http://www.w3.org/1999/xlink" width="1056" zoomAndPan="magnify" viewBox="0 0 792 683.999997" height="912" preserveAspectRatio="xMidYMid meet" version="1.0"><defs><g/></defs><g fill="#000000" fill-opacity="1"><g transform="translate(11.834181, 330.472069)"><g><path d="M 17.171875 -236.21875 L 85.609375 -236.21875 C 118.441406 -236.21875 146.5 -225.003906 169.78125 -202.578125 C 193.070312 -180.148438 204.71875 -152.039062 204.71875 -118.25 C 204.71875 -84.269531 193.117188 -56.066406 169.921875 -33.640625 C 146.734375 -11.210938 118.628906 0 85.609375 0 L 17.171875 0 Z M 71.015625 -48.109375 L 79.3125 -48.109375 C 98.96875 -48.109375 115.046875 -54.738281 127.546875 -68 C 140.054688 -81.269531 146.40625 -97.925781 146.59375 -117.96875 C 146.59375 -138.007812 140.34375 -154.710938 127.84375 -168.078125 C 115.34375 -181.441406 99.164062 -188.125 79.3125 -188.125 L 71.015625 -188.125 Z M 71.015625 -48.109375 "/></g></g></g><g fill="#000000" fill-opacity="1"><g transform="translate(208.826351, 330.472069)"><g><path d="M 165.78125 -66.421875 L 59.265625 -66.421875 C 59.265625 -56.117188 62.601562 -48.484375 69.28125 -43.515625 C 75.96875 -38.554688 83.222656 -36.078125 91.046875 -36.078125 C 99.253906 -36.078125 105.742188 -37.171875 110.515625 -39.359375 C 115.296875 -41.554688 120.738281 -45.898438 126.84375 -52.390625 L 163.5 -34.078125 C 148.226562 -8.492188 122.835938 4.296875 87.328125 4.296875 C 65.179688 4.296875 46.1875 -3.289062 30.34375 -18.46875 C 14.5 -33.644531 6.578125 -51.921875 6.578125 -73.296875 C 6.578125 -94.679688 14.5 -113.007812 30.34375 -128.28125 C 46.1875 -143.550781 65.179688 -151.1875 87.328125 -151.1875 C 110.617188 -151.1875 129.5625 -144.457031 144.15625 -131 C 158.757812 -117.539062 166.0625 -98.304688 166.0625 -73.296875 C 166.0625 -69.859375 165.96875 -67.566406 165.78125 -66.421875 Z M 60.703125 -94.484375 L 116.53125 -94.484375 C 115.382812 -102.117188 112.378906 -107.988281 107.515625 -112.09375 C 102.648438 -116.195312 96.398438 -118.25 88.765625 -118.25 C 80.359375 -118.25 73.675781 -116.050781 68.71875 -111.65625 C 63.757812 -107.269531 61.085938 -101.546875 60.703125 -94.484375 Z M 60.703125 -94.484375 "/></g></g></g><g fill="#000000" fill-opacity="1"><g transform="translate(367.164517, 330.472069)"><g><path d="M 22.046875 -228.78125 C 27.960938 -234.695312 35.023438 -237.65625 43.234375 -237.65625 C 51.441406 -237.65625 58.503906 -234.695312 64.421875 -228.78125 C 70.335938 -222.863281 73.296875 -215.800781 73.296875 -207.59375 C 73.296875 -199.382812 70.335938 -192.316406 64.421875 -186.390625 C 58.503906 -180.472656 51.441406 -177.515625 43.234375 -177.515625 C 35.023438 -177.515625 27.960938 -180.472656 22.046875 -186.390625 C 16.128906 -192.316406 13.171875 -199.382812 13.171875 -207.59375 C 13.171875 -215.800781 16.128906 -222.863281 22.046875 -228.78125 Z M 17.171875 -146.890625 L 17.171875 12.890625 C 17.171875 26.242188 12.5 32.921875 3.15625 32.921875 C 1.238281 32.921875 -0.765625 32.585938 -2.859375 31.921875 C -4.960938 31.253906 -6.679688 30.539062 -8.015625 29.78125 L -9.734375 28.625 L -25.484375 69.578125 C -25.097656 69.765625 -23.851562 70.335938 -21.75 71.296875 C -19.65625 72.253906 -18.082031 72.96875 -17.03125 73.4375 C -15.988281 73.914062 -14.222656 74.535156 -11.734375 75.296875 C -9.253906 76.066406 -6.867188 76.640625 -4.578125 77.015625 C -2.285156 77.398438 0.570312 77.78125 4 78.15625 C 7.4375 78.539062 11.066406 78.734375 14.890625 78.734375 C 24.429688 78.734375 32.828125 77.0625 40.078125 73.71875 C 47.335938 70.382812 52.875 65.898438 56.6875 60.265625 C 60.507812 54.640625 63.328125 48.722656 65.140625 42.515625 C 66.953125 36.316406 67.859375 29.6875 67.859375 22.625 L 67.859375 -146.890625 Z M 17.171875 -146.890625 "/></g></g></g><g fill="#000000" fill-opacity="1"><g transform="translate(437.887, 330.472069)"><g><path d="M 27.1875 -18.171875 C 13.445312 -33.160156 6.578125 -51.535156 6.578125 -73.296875 C 6.578125 -95.054688 13.445312 -113.476562 27.1875 -128.5625 C 40.9375 -143.644531 58.40625 -151.1875 79.59375 -151.1875 C 99.0625 -151.1875 115.097656 -145.078125 127.703125 -132.859375 L 127.703125 -146.890625 L 178.375 -146.890625 L 178.375 0 L 128.28125 0 L 128.28125 -16.609375 L 127.703125 -16.609375 C 115.097656 -2.671875 99.0625 4.296875 79.59375 4.296875 C 58.40625 4.296875 40.9375 -3.191406 27.1875 -18.171875 Z M 70.296875 -98.203125 C 63.710938 -91.710938 60.421875 -83.410156 60.421875 -73.296875 C 60.421875 -63.179688 63.566406 -54.925781 69.859375 -48.53125 C 76.160156 -42.132812 84.46875 -38.9375 94.78125 -38.9375 C 104.695312 -38.9375 112.851562 -42.179688 119.25 -48.671875 C 125.644531 -55.160156 128.84375 -63.367188 128.84375 -73.296875 C 128.84375 -83.410156 125.550781 -91.710938 118.96875 -98.203125 C 112.382812 -104.703125 104.320312 -107.953125 94.78125 -107.953125 C 85.039062 -107.953125 76.878906 -104.703125 70.296875 -98.203125 Z M 70.296875 -98.203125 "/></g></g></g><g fill="#000000" fill-opacity="1"><g transform="translate(11.834181, 602.481369)"><g><path d="M 17.171875 -236.21875 L 90.484375 -236.21875 C 112.617188 -236.21875 130.269531 -231.492188 143.4375 -222.046875 C 156.613281 -212.597656 163.203125 -197.28125 163.203125 -176.09375 C 163.203125 -152.425781 153.375 -135.53125 133.71875 -125.40625 C 167.3125 -119.488281 184.109375 -99.640625 184.109375 -65.859375 C 184.109375 -46.003906 177.234375 -30.0625 163.484375 -18.03125 C 149.742188 -6.007812 130.847656 0 106.796875 0 L 17.171875 0 Z M 71.015625 -143.734375 L 75.296875 -143.734375 C 87.328125 -143.734375 96.300781 -145.832031 102.21875 -150.03125 C 108.132812 -154.226562 111.09375 -161.101562 111.09375 -170.65625 C 111.09375 -186.6875 99.160156 -194.703125 75.296875 -194.703125 L 71.015625 -194.703125 Z M 71.015625 -41.515625 L 87.90625 -41.515625 C 114.25 -41.515625 127.421875 -50.296875 127.421875 -67.859375 C 127.421875 -78.359375 124.125 -85.894531 117.53125 -90.46875 C 110.945312 -95.050781 101.070312 -97.34375 87.90625 -97.34375 L 71.015625 -97.34375 Z M 71.015625 -41.515625 "/></g></g></g><g fill="#000000" fill-opacity="1"><g transform="translate(188.210875, 602.481369)"><g><path d="M 17.171875 0 L 17.171875 -146.890625 L 67.859375 -146.890625 L 67.859375 -125.703125 L 68.4375 -125.703125 C 68.8125 -126.460938 69.425781 -127.414062 70.28125 -128.5625 C 71.144531 -129.707031 73.007812 -131.710938 75.875 -134.578125 C 78.738281 -137.441406 81.789062 -140.015625 85.03125 -142.296875 C 88.28125 -144.585938 92.484375 -146.640625 97.640625 -148.453125 C 102.796875 -150.273438 108.046875 -151.1875 113.390625 -151.1875 C 118.921875 -151.1875 124.359375 -150.421875 129.703125 -148.890625 C 135.046875 -147.359375 138.960938 -145.832031 141.453125 -144.3125 L 145.453125 -142.015625 L 124.265625 -99.0625 C 117.960938 -104.414062 109.179688 -107.09375 97.921875 -107.09375 C 91.816406 -107.09375 86.566406 -105.753906 82.171875 -103.078125 C 77.785156 -100.398438 74.6875 -97.148438 72.875 -93.328125 C 71.0625 -89.515625 69.769531 -86.269531 69 -83.59375 C 68.238281 -80.925781 67.859375 -78.832031 67.859375 -77.3125 L 67.859375 0 Z M 17.171875 0 "/></g></g></g><g fill="#000000" fill-opacity="1"><g transform="translate(316.48483, 602.481369)"><g><path d="M 165.78125 -66.421875 L 59.265625 -66.421875 C 59.265625 -56.117188 62.601562 -48.484375 69.28125 -43.515625 C 75.96875 -38.554688 83.222656 -36.078125 91.046875 -36.078125 C 99.253906 -36.078125 105.742188 -37.171875 110.515625 -39.359375 C 115.296875 -41.554688 120.738281 -45.898438 126.84375 -52.390625 L 163.5 -34.078125 C 148.226562 -8.492188 122.835938 4.296875 87.328125 4.296875 C 65.179688 4.296875 46.1875 -3.289062 30.34375 -18.46875 C 14.5 -33.644531 6.578125 -51.921875 6.578125 -73.296875 C 6.578125 -94.679688 14.5 -113.007812 30.34375 -128.28125 C 46.1875 -143.550781 65.179688 -151.1875 87.328125 -151.1875 C 110.617188 -151.1875 129.5625 -144.457031 144.15625 -131 C 158.757812 -117.539062 166.0625 -98.304688 166.0625 -73.296875 C 166.0625 -69.859375 165.96875 -67.566406 165.78125 -66.421875 Z M 60.703125 -94.484375 L 116.53125 -94.484375 C 115.382812 -102.117188 112.378906 -107.988281 107.515625 -112.09375 C 102.648438 -116.195312 96.398438 -118.25 88.765625 -118.25 C 80.359375 -118.25 73.675781 -116.050781 68.71875 -111.65625 C 63.757812 -107.269531 61.085938 -101.546875 60.703125 -94.484375 Z M 60.703125 -94.484375 "/></g></g></g><g fill="#000000" fill-opacity="1"><g transform="translate(474.822996, 602.481369)"><g><path d="M 107.375 0 L 73.015625 0 L -5.71875 -146.890625 L 52.6875 -146.890625 L 88.46875 -67.578125 L 123.6875 -146.890625 L 158.625 -146.890625 L 193.84375 -67.578125 L 229.640625 -146.890625 L 288.046875 -146.890625 L 209.3125 0 L 174.953125 0 L 141.15625 -75.875 Z M 107.375 0 "/></g></g></g></svg>